# xmcd
#
# Track frame offsets:
#	150
#	94650
#	121725
#	152400
#	191850
#	242775
#
# Disc length: 3644 seconds
#
# Revision: 1
# Processed by: cddbd v1.5.2PL0 Copyright (c) Steve Scherf et al.
# Submitted via: audiograbber 1.83.01
#
DISCID=430e3a06
DTITLE=Grateful Dead - 93-03-10 Rosemont Horizon, Rosemont IL
DYEAR=1900
DGENRE=
TTITLE0=Drums > Space
TTITLE1=The Wheel
TTITLE2=All Along The Watchtower
TTITLE3=Standing On The Moon
TTITLE4=Not Fade Away
TTITLE5=It's All Over Now Baby Blue
EXTD=
EXTT0=
EXTT1=
EXTT2=
EXTT3=
EXTT4=
EXTT5=
PLAYORDER=
